<svg xmlns="http://www.w3.org/2000/svg" viewBox="0 0 24 24" width="24" height="24"><path fill="#FF4500" d="M12 0C5.373 0 0 5.373 0 12c0 6.628 5.373 12 12 12s12-5.372 12-12c0-6.627-5.373-12-12-12zm7.65 13.82c.07.24.1.49.1.75 0 2.56-3.05 4.63-6.82 4.63s-6.82-2.07-6.82-4.63c0-.26.04-.51.1-.75-.68-.38-1.14-1.1-1.14-1.94 0-1.23 1-2.23 2.23-2.23.63 0 1.2.27 1.6.7 1.11-.79 2.62-1.3 4.29-1.35l.87-4.1 2.85.6c.07-.63.6-1.12 1.25-1.12.7 0 1.27.57 1.27 1.27 0 .7-.57 1.27-1.27 1.27-.58 0-1.07-.4-1.22-.94l-2.42-.51-.73 3.44c1.7.05 3.23.56 4.35 1.37.4-.44.98-.72 1.62-.72 1.23 0 2.23 1 2.23 2.23 0 .84-.46 1.57-1.14 1.94zM9.54 13.43c-.66 0-1.2.54-1.2 1.2 0 .66.54 1.2 1.2 1.2.66 0 1.2-.54 1.2-1.2 0-.66-.54-1.2-1.2-1.2zm5.72 2.4c.66 0 1.2-.54 1.2-1.2 0-.66-.54-1.2-1.2-1.2-.66 0-1.2.54-1.2 1.2 0 .66.54 1.2 1.2 1.2zm-5.6 2.05c.34.34 1.18.66 2.34.66s2-.32 2.34-.66c.15-.15.15-.4 0-.55-.15-.15-.4-.15-.55 0-.2.2-.84.45-1.79.45s-1.59-.25-1.79-.45c-.15-.15-.4-.15-.55 0-.15.15-.15.4 0 .55z"/></svg>
